<svg xmlns="http://www.w3.org/2000/svg" viewBox="0 0 522.34 108.8"><defs><style>.cls-1{fill:#1d1d1b;stroke:#1d1d1b;stroke-miterlimit:10;}.cls-2{fill:#7fba2e;}.cls-3{fill:#fff;}</style></defs><g id="Capa_2" data-name="Capa 2"><g id="Capa_1-2" data-name="Capa 1"><path class="cls-1" d="M119.3,19.86h15.91v66.5H119.3Z"/><path class="cls-1" d="M166,57.82V86.36H150.7V35.18H166v5.71a22.11,22.11,0,0,1,15.6-6.57A20,20,0,0,1,196.11,40Q202,45.75,202,55.25V86.36H186.68V57.44q0-11.79-9.27-11.79a11.57,11.57,0,0,0-8,3.09Q166,51.83,166,57.82Z"/><path class="cls-1" d="M233.57,32.23v3.43h13.25V45.93H233.57V86.36H218.18V45.93h-6.42V35.66h6.42V32.52q0-8.37,5.45-13.27a19.54,19.54,0,0,1,13.56-4.9,22,22,0,0,1,14.73,5.71l-5.5,9.6A10,10,0,0,0,239,26.05a5.17,5.17,0,0,0-3.88,1.57A6.35,6.35,0,0,0,233.57,32.23Z"/><path class="cls-1" d="M271.59,86.36H256.3V15.77h15.29Z"/><path class="cls-1" d="M321.44,62.77V35.18h15.39V86.36H321.44V79.6a17.69,17.69,0,0,1-14.73,7.52,22.35,22.35,0,0,1-15.14-5.28q-6.12-5.28-6.11-15.65v-31h15.39V63.05q0,11.81,9.27,11.8a11.35,11.35,0,0,0,7.95-3.09Q321.45,68.67,321.44,62.77Z"/><path class="cls-2" d="M415.28,70.19q0,15.38-5.29,23.84-5.12,8.16-14.14,8.16-11.07,0-15.85-11.77-5.69,9.06-12.51,9-9.12,0-15.28-10.29-6.54-10.94-6.54-28.84,0-24.63,7-24.64A4.49,4.49,0,0,1,356,37.16a4.75,4.75,0,0,1,1.44,3.44c0-.23-.35,1.91-1,6.43a93.75,93.75,0,0,0-1,14.15q0,12.18,3.82,19.89,3.54,7.13,8.5,7.12,3.48,0,6-4.08t2.51-10.61q0-3.51-.64-9.6t-.65-8.6c0-4.46,1.77-6.68,5.3-6.68s5.4,2.39,5.4,7.17c0,.73,0,2-.08,3.76s-.07,3.17-.07,4.15q0,14.05.62,17.76,1.88,11.19,9.17,11.19,4.77,0,7.62-5.12c1.89-3.42,2.84-8.22,2.84-14.43A105.89,105.89,0,0,0,403.54,52q-2.15-10.56-2.15-11,0-4,4-4,4.53,0,7.16,8.46Q415.29,54.3,415.28,70.19Z"/><path class="cls-2" d="M437.39,46.14q0,29.83-2.05,44.08c-.54,3.83-1.15,6.4-1.81,7.72a4.33,4.33,0,0,1-4.16,2.62,4.47,4.47,0,0,1-3.25-1.31,4.23,4.23,0,0,1-1.33-3.14c0,.17.25-1,.76-3.41A88.23,88.23,0,0,0,427,83.25a167.58,167.58,0,0,0,.76-16.82q0-4.07-.09-8.56c-.06-3-.1-4.64-.1-4.9q0-6.67,1.1-9.3A4.26,4.26,0,0,1,433,40.8Q437.4,40.8,437.39,46.14Zm2.06-18.85q0,7-6.64,7a6,6,0,0,1-4.51-1.93,6.49,6.49,0,0,1-1.84-4.65,7,7,0,0,1,2-5,6.59,6.59,0,0,1,4.92-2.07,5.67,5.67,0,0,1,4.39,1.82A6.91,6.91,0,0,1,439.45,27.29Z"/><path class="cls-2" d="M466.61,32.09c0-.06-.35,1-1.05,3.17a59.59,59.59,0,0,0-1.91,8.36,93.56,93.56,0,0,0-1,14.59q0,4.5.6,13.61t.6,13.75c0,4.39-.39,7.5-1.15,9.35a4.46,4.46,0,0,1-4.44,3,3.31,3.31,0,0,1-3.44-2,13.3,13.3,0,0,1-.47-4.35q0-2.48,0-6.19c0-2.47.05-4.12.05-4.94q0-5.1-.43-13.46t-.43-11.67q0-13.17,2.29-20.64,2.25-7.11,6-7.12a4.67,4.67,0,0,1,3.32,1.39A4.25,4.25,0,0,1,466.61,32.09Zm33.43,10q0,3.06-6.21,6.41L475.71,57.4a171.21,171.21,0,0,1,17.5,21.15q5.58,8.31,5.59,12.07a5.31,5.31,0,0,1-1.37,3.66,4.08,4.08,0,0,1-3.13,1.53c-1.27,0-2.38-.77-3.34-2.32q-3.49-5.83-10.17-16.33a90.79,90.79,0,0,0-12.6-14.3c-1.85-1.71-2.8-2.6-2.87-2.67a6.79,6.79,0,0,1-1.43-4.3c0-1.52,1-2.82,3-3.91q4.2-1.93,8.4-3.91t13-7.32c3.6-2.14,6-3.22,7.16-3.22Q500,37.53,500,42.08Z"/><path class="cls-2" d="M520.28,46.14q0,29.83-2,44.08-.81,5.75-1.82,7.72a4.31,4.31,0,0,1-4.15,2.62A4.45,4.45,0,0,1,509,99.25a4.23,4.23,0,0,1-1.33-3.14c0,.17.25-1,.76-3.41a88.23,88.23,0,0,0,1.48-9.45,167.58,167.58,0,0,0,.76-16.82q0-4.07-.09-8.56c-.07-3-.1-4.64-.1-4.9q0-6.67,1.1-9.3a4.26,4.26,0,0,1,4.3-2.87Q520.29,40.8,520.28,46.14Zm2.06-18.85q0,7-6.64,7a6,6,0,0,1-4.51-1.93,6.49,6.49,0,0,1-1.84-4.65,7,7,0,0,1,2-5,6.59,6.59,0,0,1,4.92-2.07,5.67,5.67,0,0,1,4.39,1.82A6.91,6.91,0,0,1,522.34,27.29Z"/><rect class="cls-3" x="16.32" y="21.77" width="72.15" height="30.94"/><path class="cls-2" d="M53,106.16c-2.34,2.7-4.74,2.24-6.3-.52A3.49,3.49,0,0,1,43.23,107a3,3,0,0,1-2.53-3.44c.26-2.75.26-2.72-2.48-2.77A124.11,124.11,0,0,1,8.73,96.5c-1.1-.29-2.23-.47-3.34-.75-.73-.17-1.7-.12-1.69-1.25,0-.84,1.37-1.87,2.28-1.8.38,0,.58,0,1.24,0s-1.06-2-1.33-3.1c0-.21-.11-.42-.14-.64-.17-1.15-.26-2.45.61-3.23s2-.14,3,.21a6.55,6.55,0,0,1,2.69,1.61c.57.6,1,.65,1.65,0a6,6,0,0,1,2.5-1.41c1.25-.41,1.84-.07,2,1.24a7.12,7.12,0,0,1-1.48,5.94c-.53.63-.67,1,.35,1.16a110.34,110.34,0,0,0,22.82,1.38c.08,0,.1,0,.18-.13s-1-.42-1.43-.55C25.83,91.75,17.94,83.46,14.77,70.6c-.41-1.67-.44-1.7-2-.94a27.74,27.74,0,0,1-6,2.23c-2.63.61-4.86-.2-6-2.14a5.29,5.29,0,0,1,.88-6.54,40.7,40.7,0,0,1,9.16-7.05,6.19,6.19,0,0,0,3.13-5,26.61,26.61,0,0,0-.43-9.47c-.27-1.33-.41-2.69-.58-4a1.6,1.6,0,0,0-1.45-1.56,4.8,4.8,0,0,1-3.93-5.27c0-.65.16-1.3.23-2,.14-1.2.67-2,2-1.94A1.23,1.23,0,0,0,11.06,26c1.06-3,3.43-4.35,6.22-5.19a39.91,39.91,0,0,1,9-1.39,4.09,4.09,0,0,0,2.85-1.36A31.39,31.39,0,0,1,44.81,9a20.57,20.57,0,0,1,2.59-.43c.83-.08,1-.35.55-1.07a5.13,5.13,0,0,1-.69-3.67c.16-1,.66-1.39,1.67-1A6.94,6.94,0,0,1,51,3.9c.65.54,1.08.56,1.51-.29A7.71,7.71,0,0,1,56.41.21a1.25,1.25,0,0,1,2,.8,7.58,7.58,0,0,1-.26,6.62c-.47.84-.34,1.22.64,1.46a31.86,31.86,0,0,1,15.14,9.12,3.67,3.67,0,0,0,2.77,1.15,45.85,45.85,0,0,1,11.59,1.45c2.91.86,5.33,2.27,6.41,5.32A1.28,1.28,0,0,0,96,27c1.28.06,1.83.76,2,2a8.7,8.7,0,0,1-.35,4.66,3.7,3.7,0,0,1-3.3,2.46c-1.13.07-1.38.6-1.49,1.55-.2,1.79-.48,3.57-.74,5.34a13.85,13.85,0,0,1-1.89,5.16,5.07,5.07,0,0,0,1.47,6.33c3,2.09,6.15,4.08,9,6.39a16.37,16.37,0,0,1,3.46,3.59,5.42,5.42,0,0,1,0,6.2C103,72.64,101,73,99,72.79a22.21,22.21,0,0,1-7.26-2.25c-1.91-.88-1.88-.85-2.39,1.2C86.77,81.88,80.6,89,71.07,93.15c-1.55.68-3.16,1.23-4.71,2l9.16-.45c1,0,2.11-.08,3.16,0a3.17,3.17,0,0,1,3.14,3.49c0,2-1.21,3.47-3.19,3.45-3.15,0-6.31-.27-9.46-.41-.83,0-1.67,0-2.5-.11-1.17-.09-1.6.46-1.49,1.57a7.8,7.8,0,0,1,0,1.45,3.05,3.05,0,0,1-4.78,2.49c-.76-.48-1-.37-1.31.38A3.7,3.7,0,0,1,57,108.68a1.87,1.87,0,0,1-1.32,0A9.1,9.1,0,0,1,53,106.16Zm9-60a4.83,4.83,0,0,0,3.63,3.28,33.13,33.13,0,0,0,9.67.81,24.28,24.28,0,0,0,5.37-.47A4.17,4.17,0,0,0,83.26,48c2.42-3.85,3.42-8.16,4-12.58a20.1,20.1,0,0,0,.09-5.9,4.66,4.66,0,0,0-3.7-4.11c-3.13-.84-6.36-.72-9.55-.93a43,43,0,0,0-6.71.23c-5,.47-7.64,3.45-7.65,9.12A45.54,45.54,0,0,0,62,46.19ZM22,47.36A4.5,4.5,0,0,0,25.81,50a43.86,43.86,0,0,0,13.48-.38A5.51,5.51,0,0,0,44,45.42a43.7,43.7,0,0,0,1.6-13.54c-.23-4.24-2.82-6.71-7.46-7.22A63.94,63.94,0,0,0,23,25.1c-3.39.43-4.81,2.15-5,5.55,0,.61,0,1.22,0,1.84A35.94,35.94,0,0,0,22,47.36Zm28.05-6.58c-.51,1.39-.85,2.85-1.28,4.27-.2.66.19,1,.67,1.26a7.32,7.32,0,0,1,2.23,2.1c.54.76,1.42.47,2.1,0A6.18,6.18,0,0,1,56.65,47c.61-.11.82-.44.64-1a37.38,37.38,0,0,0-1.71-5.38,2.58,2.58,0,0,0-2.72-1.67A2.53,2.53,0,0,0,50.05,40.78Z"/><path class="cls-2" d="M69.76,11.29a13.26,13.26,0,0,0,3-.62,17.57,17.57,0,0,1,6.88-.55c.38.05.83.1,1-.35a.85.85,0,0,0-.44-1.11C77,6.49,73.54,5,69.51,6a3.06,3.06,0,0,0-2.46,2.73C66.88,10.4,67.78,11.36,69.76,11.29Z"/><path class="cls-2" d="M25.42,10.08c2.41-.58,4.8.35,7.25.77.35.06.68.17,1,.23,1.59.27,2.36-.09,2.77-1.28a2.64,2.64,0,0,0-1.39-3.19A6.64,6.64,0,0,0,32.13,6a13.07,13.07,0,0,0-7.24,2.43c-.43.26-.91.66-.66,1.28C24.42,10.2,24.89,10.09,25.42,10.08Z"/><path class="cls-2" d="M70.11,33.24a3.47,3.47,0,0,0-3.58,3.54,3.67,3.67,0,0,0,3.61,3.6,3.59,3.59,0,0,0,3.48-3.55A3.4,3.4,0,0,0,70.11,33.24Z"/><path class="cls-2" d="M31.65,36.81a3.61,3.61,0,0,0,3.5,3.55,3.74,3.74,0,0,0,3.62-3.64,3.78,3.78,0,0,0-3.7-3.56A3.66,3.66,0,0,0,31.65,36.81Z"/><rect class="cls-2" x="76.52" y="94.66" width="262.11" height="6.9" rx="1.01"/></g></g></svg>