<svg xmlns="http://www.w3.org/2000/svg" viewBox="0 0 396.9 86.89"><defs><style>.cls-1{fill:#1d1d1b;stroke:#1d1d1b;stroke-miterlimit:10;}.cls-2{fill:#7fba2e;}</style></defs><g id="Capa_2" data-name="Capa 2"><g id="Capa_1-2" data-name="Capa 1"><path class="cls-1" d="M.57,5.93H16.2V71.32H.57Z"/><path class="cls-1" d="M46.47,43.25V71.32h-15V21h15V26.6q6.83-6.45,15.34-6.46A19.67,19.67,0,0,1,76.1,25.76q5.76,5.61,5.76,15V71.32h-15V42.88q0-11.61-9.12-11.6a11.34,11.34,0,0,0-7.87,3Q46.47,37.35,46.47,43.25Z"/><path class="cls-1" d="M112.93,18.09v3.36h13V31.56h-13V71.32H97.8V31.56H91.48V21.45H97.8V18.37q0-8.23,5.36-13A19.23,19.23,0,0,1,116.49.5,21.68,21.68,0,0,1,131,6.11l-5.41,9.45A9.86,9.86,0,0,0,118.25,12a5.08,5.08,0,0,0-3.81,1.54A6.26,6.26,0,0,0,112.93,18.09Z"/><path class="cls-1" d="M150.32,71.32h-15V1.9h15Z"/><path class="cls-1" d="M199.34,48.12V21h15.14V71.32H199.34V64.67a17.39,17.39,0,0,1-14.48,7.39A22,22,0,0,1,170,66.87q-6-5.19-6-15.39V21h15.13V48.4q0,11.6,9.12,11.6A11.19,11.19,0,0,0,196,57Q199.35,53.92,199.34,48.12Z"/><path class="cls-2" d="M291.63,55.41q0,15.14-5.21,23.45-5,8-13.9,8-10.89,0-15.59-11.58-5.6,8.89-12.3,8.9-9,0-15-10.12-6.43-10.76-6.43-28.36,0-24.22,6.9-24.23a4.41,4.41,0,0,1,3.24,1.44,4.65,4.65,0,0,1,1.41,3.38q0-.34-1,6.32a93.33,93.33,0,0,0-1,13.92q0,12,3.76,19.55,3.48,7,8.36,7,3.42,0,5.89-4t2.46-10.43q0-3.45-.63-9.44t-.63-8.46c0-4.38,1.73-6.57,5.21-6.57s5.3,2.35,5.3,7c0,.72,0,2-.07,3.7s-.07,3.11-.07,4.09q0,13.82.61,17.46,1.83,11,9,11,4.69,0,7.49-5t2.79-14.18a103.78,103.78,0,0,0-2.11-20.75Q278,27.15,278,26.71q0-3.9,3.94-3.9,4.45,0,7,8.32Q291.64,39.8,291.63,55.41Z"/><path class="cls-2" d="M313.37,31.77q0,29.33-2,43.34c-.53,3.77-1.13,6.3-1.78,7.59a4.26,4.26,0,0,1-4.09,2.58A4.38,4.38,0,0,1,302.29,84,4.17,4.17,0,0,1,301,80.9c0,.17.25-1,.75-3.35a88.32,88.32,0,0,0,1.46-9.3,165.05,165.05,0,0,0,.75-16.54q0-4-.09-8.41c-.07-2.95-.1-4.56-.1-4.82q0-6.57,1.08-9.15a4.18,4.18,0,0,1,4.23-2.82Q313.37,26.51,313.37,31.77Zm2-18.54q0,6.91-6.53,6.91a5.89,5.89,0,0,1-4.44-1.9,6.4,6.4,0,0,1-1.8-4.57,6.84,6.84,0,0,1,2-5,6.42,6.42,0,0,1,4.83-2.05,5.56,5.56,0,0,1,4.32,1.8A6.78,6.78,0,0,1,315.39,13.23Z"/><path class="cls-2" d="M342.11,18c0-.07-.35,1-1,3.11a57.75,57.75,0,0,0-1.88,8.23,93,93,0,0,0-1,14.35q0,4.43.59,13.38t.59,13.52c0,4.32-.38,7.38-1.13,9.2a4.39,4.39,0,0,1-4.37,3,3.25,3.25,0,0,1-3.38-2,13.21,13.21,0,0,1-.47-4.28q0-2.43.05-6.08c0-2.44,0-4.06,0-4.87q0-5-.42-13.23t-.42-11.48q0-12.95,2.25-20.29,2.22-7,5.92-7a4.59,4.59,0,0,1,3.26,1.37A4.16,4.16,0,0,1,342.11,18ZM375,27.77q0,3-6.1,6.31l-17.82,8.75a169.3,169.3,0,0,1,17.21,20.8q5.49,8.17,5.49,11.87a5.19,5.19,0,0,1-1.34,3.6,4,4,0,0,1-3.07,1.51c-1.26,0-2.35-.76-3.29-2.28q-3.44-5.74-10-16.06a88.84,88.84,0,0,0-12.39-14.06c-1.81-1.69-2.75-2.56-2.81-2.63a6.66,6.66,0,0,1-1.41-4.23c0-1.49,1-2.77,3-3.84q4.13-1.9,8.26-3.85t12.77-7.2c3.54-2.1,5.89-3.16,7.05-3.16Q375,23.3,375,27.77Z"/><path class="cls-2" d="M394.88,31.77q0,29.33-2,43.34c-.53,3.77-1.13,6.3-1.78,7.59A4.26,4.26,0,0,1,387,85.28,4.39,4.39,0,0,1,383.8,84a4.16,4.16,0,0,1-1.31-3.09c0,.17.25-1,.75-3.35a88.49,88.49,0,0,0,1.45-9.3,165.05,165.05,0,0,0,.75-16.54q0-4-.09-8.41c-.06-2.95-.09-4.56-.09-4.82q0-6.57,1.08-9.15a4.18,4.18,0,0,1,4.22-2.82Q394.88,26.51,394.88,31.77Zm2-18.54q0,6.91-6.53,6.91a5.86,5.86,0,0,1-4.43-1.9,6.36,6.36,0,0,1-1.81-4.57,6.88,6.88,0,0,1,2-5,6.45,6.45,0,0,1,4.84-2.05,5.59,5.59,0,0,1,4.32,1.8A6.82,6.82,0,0,1,396.9,13.23Z"/><rect class="cls-2" y="79.48" width="216.25" height="6.78" rx="1.01"/></g></g></svg>